<svg xmlns="http://www.w3.org/2000/svg" xmlns:xlink="http://www.w3.org/1999/xlink" version="1.1" x="0px" y="0px" viewBox="0 0 2000 2500" enable-background="new 0 0 2000 2000" xml:space="preserve"><path d="M1612.738,280.616c-31.917-22.389-77.604-12.301-102.034,22.533c-13.96,19.895-17.947,43.553-12.871,64.363  l-148.709,211.994l39.653,27.815l-6.87-4.818l-121.157-84.99c-5.112-3.584-1.585-75.899-5.935-69.7l-22.145,31.569  c-4.352,6.201-14.996,88.665-9.884,92.253l79.525,55.783l-37.928,54.068l65.338,18.677l22.764-32.45  c0.857-1.222,1.942-2.184,3.151-2.889l-6.496-4.558l122.709,86.079c5.113,3.585,79.026-34.498,83.375-40.699l22.145-31.568  c4.35-6.201-62.444,21.734-67.556,18.147l-88.376-61.992l148.71-211.995c21.297-2.311,42.184-14.115,56.14-34.01  C1650.723,349.396,1644.657,303.007,1612.738,280.616z M1594.038,359.929c-10.468,14.92-30.035,19.24-43.707,9.651  c-13.668-9.59-16.27-29.46-5.804-44.38c10.468-14.922,30.035-19.24,43.707-9.652  C1601.905,325.138,1604.505,345.007,1594.038,359.929z M578.561,630.234l72.315-50.728L502.167,367.513  c5.076-20.811,1.088-44.469-12.871-64.363c-24.431-34.834-70.118-44.922-102.034-22.533c-31.92,22.391-37.984,68.779-13.55,103.613  c13.956,19.895,34.842,31.699,56.139,34.01L578.561,630.234z M405.961,359.929c-10.466-14.922-7.867-34.791,5.805-44.381  c13.672-9.588,33.239-5.27,43.707,9.652c10.466,14.92,7.864,34.79-5.804,44.38C435.996,379.169,416.43,374.849,405.961,359.929z   M1453.218,766.667c53.799,883.203-457.292,954.935-457.292,954.935h-4.832c0,0-511.095-71.731-457.296-954.935L1000,637.113  L1453.218,766.667z M1353.861,1562.839l51.017,168.458l-141.034-105.317l-11.127-15.862c4.623-4.591,9.243-9.31,13.854-14.197  c21.215-22.492,40.966-46.879,59.239-73.071L1353.861,1562.839z M644.361,664.825l-116.213,81.521  c-5.112,3.585-79.024-34.498-83.374-40.699l-22.146-31.568c-4.35-6.201,62.445,21.734,67.557,18.147l127.907-89.723l121.157-84.99  c5.112-3.584,1.585-75.899,5.935-69.7l22.144,31.569c4.353,6.201,14.996,88.665,9.885,92.253l-79.525,55.783l36.73,52.361  l-65.645,18.241l-21.26-30.308C646.656,666.492,645.571,665.53,644.361,664.825z M631.141,679.2l17.188,24.503l-26.307,7.311  l-14.347-20.452l21.823-15.309C629.748,676.63,630.283,677.979,631.141,679.2z M742.01,1617.635l-5.854,8.345l-141.033,105.317  l51.015-168.458l21.598-30.789c16.425,22.722,34,44.033,52.712,63.87C727.62,1603.524,734.815,1610.744,742.01,1617.635z   M1392.324,690.562l-16.066,22.904l-26.185-7.484l18.786-26.781c0.857-1.222,1.394-2.57,1.644-3.947L1392.324,690.562z"/><text x="0" y="2015" fill="#000000" font-size="5px" font-weight="bold" font-family="'Helvetica Neue', Helvetica, Arial-Unicode, Arial, Sans-serif">Created by Rifai</text><text x="0" y="2020" fill="#000000" font-size="5px" font-weight="bold" font-family="'Helvetica Neue', Helvetica, Arial-Unicode, Arial, Sans-serif">from the Noun Project</text></svg>